<?xml version="1.0" standalone="no"?>
<!DOCTYPE svg PUBLIC "-//W3C//DTD SVG 20010904//EN"
 "http://www.w3.org/TR/2001/REC-SVG-20010904/DTD/svg10.dtd">
<svg version="1.0" xmlns="http://www.w3.org/2000/svg"
 width="928.000000pt" height="928.000000pt" viewBox="0 0 928.000000 928.000000"
 preserveAspectRatio="xMidYMid meet">
<metadata>
Created by potrace 1.11, written by Peter Selinger 2001-2013
</metadata>
<g transform="translate(0.000000,928.000000) scale(0.100000,-0.100000)"
fill="#000000" stroke="none">
<path d="M1122 8975 c-4 -5 -7 -1953 -7 -4328 0 -4294 0 -4317 20 -4324 26 -8
201 -7 215 2 5 3 10 2 10 -4 0 -6 11 -6 30 -1 17 5 30 5 30 0 0 -5 13 -5 30 0
17 5 32 5 35 0 3 -5 16 -5 30 0 15 6 27 6 30 0 3 -6 15 -6 30 0 15 6 27 6 30
0 3 -6 15 -6 30 0 15 6 27 6 30 0 3 -6 15 -6 30 0 15 6 27 6 30 0 3 -6 15 -6
30 0 15 6 27 6 30 0 3 -6 15 -6 30 0 15 6 27 6 30 0 3 -6 15 -6 30 0 15 6 27
6 30 0 3 -6 15 -6 30 0 15 6 27 6 30 0 3 -6 15 -6 30 0 15 6 27 6 30 0 3 -6
15 -6 30 0 15 6 27 6 30 0 3 -6 15 -6 30 0 15 6 27 6 30 0 3 -6 15 -6 30 0 15
6 27 6 30 0 3 -6 15 -6 30 0 15 6 27 6 30 0 3 -6 15 -6 30 0 15 6 27 6 30 0 3
-6 15 -6 30 0 15 6 27 6 30 0 3 -6 15 -6 30 0 15 6 27 6 30 0 3 -6 15 -6 30 0
13 5 27 6 29 1 3 -4 25 -5 49 -1 25 3 54 3 65 -1 12 -5 24 -4 27 1 3 6 15 6
29 0 13 -5 27 -6 30 -2 4 3 21 6 39 6 l32 1 0 2947 c0 2318 3 2949 12 2952 13
6 43 -30 43 -51 0 -7 5 -13 10 -13 6 0 10 -5 10 -11 0 -6 12 -29 28 -52 31
-49 35 -54 99 -162 26 -44 51 -87 55 -96 4 -10 11 -20 16 -23 5 -3 22 -29 37
-58 15 -28 35 -63 45 -77 17 -25 82 -131 120 -196 52 -90 146 -240 153 -243 4
-2 7 -9 7 -15 0 -7 20 -42 44 -79 24 -37 41 -69 38 -72 -3 -3 0 -6 6 -6 7 0
12 -6 12 -13 0 -7 8 -22 18 -33 10 -10 18 -21 18 -24 0 -3 7 -16 16 -30 8 -14
44 -72 79 -130 35 -58 67 -106 71 -108 4 -2 8 -9 8 -16 0 -6 16 -35 35 -65 19
-29 35 -54 35 -56 0 -2 27 -47 60 -100 33 -53 60 -100 60 -106 0 -5 5 -9 10
-9 6 0 10 -4 10 -9 0 -8 58 -109 78 -134 5 -7 20 -32 33 -57 13 -25 26 -47 29
-50 3 -3 46 -72 95 -155 50 -82 93 -151 98 -153 4 -2 7 -7 7 -12 0 -5 50 -91
112 -192 61 -100 134 -221 162 -268 28 -47 54 -86 58 -88 5 -2 8 -8 8 -13 0
-6 16 -35 35 -65 19 -30 35 -59 35 -64 0 -6 5 -10 10 -10 6 0 10 -4 10 -10 0
-5 34 -65 75 -132 89 -145 78 -127 156 -258 35 -58 67 -107 71 -108 4 -2 8 -8
8 -13 0 -5 23 -46 50 -90 28 -44 50 -85 50 -90 0 -5 5 -9 10 -9 6 0 10 -4 10
-9 0 -5 23 -46 50 -90 28 -44 50 -85 50 -90 0 -5 4 -11 8 -13 6 -2 129 -201
202 -327 55 -93 75 -127 80 -131 8 -7 29 -41 43 -70 7 -14 25 -44 40 -67 15
-24 27 -45 27 -48 0 -3 5 -11 10 -18 18 -21 190 -309 190 -318 0 -5 5 -9 10
-9 6 0 10 -7 10 -15 0 -8 5 -15 10 -15 6 0 10 -4 10 -9 0 -13 172 -295 182
-299 4 -2 8 -8 8 -13 0 -12 132 -233 143 -237 4 -2 7 -7 7 -12 0 -10 50 -96
92 -157 15 -23 28 -44 28 -47 0 -4 12 -25 27 -47 19 -29 32 -39 45 -36 10 3
20 1 23 -4 3 -4 16 -4 30 1 15 6 27 6 30 0 3 -6 15 -6 30 0 15 6 27 6 30 0 3
-6 15 -6 30 0 15 6 27 6 30 0 3 -6 15 -6 30 0 15 6 27 6 30 0 3 -6 15 -6 30 0
15 6 27 6 30 0 3 -6 15 -6 30 0 15 6 27 6 30 0 3 -6 15 -6 30 0 15 6 27 6 30
0 3 -6 15 -6 30 0 15 6 27 6 30 0 3 -6 15 -6 30 0 15 6 27 6 30 0 3 -6 15 -6
30 0 15 6 27 6 30 0 3 -6 15 -6 30 0 15 6 27 6 30 0 3 -6 15 -6 30 0 15 6 27
6 30 0 3 -6 15 -6 30 0 15 6 27 6 30 0 3 -6 15 -6 30 0 15 6 27 6 30 0 3 -6
15 -6 30 0 15 6 27 6 30 0 3 -6 15 -6 30 0 15 6 27 6 30 0 3 -6 15 -6 30 0 15
6 27 6 30 0 3 -6 15 -6 30 0 15 6 27 6 30 0 3 -6 15 -6 30 0 15 6 27 6 30 0 3
-6 15 -6 30 0 13 5 27 6 29 1 3 -4 25 -5 49 -1 25 3 54 3 65 -1 12 -5 24 -4
27 1 3 6 15 6 30 0 15 -6 27 -6 30 1 4 5 11 7 16 3 13 -8 188 -9 195 -1 4 3
15 2 25 -3 11 -7 20 -7 24 0 3 5 15 6 28 1 13 -5 30 -5 38 -1 14 8 15 479 15
4337 l-1 4327 -818 1 c-451 0 -823 -3 -829 -6 -7 -4 -10 -957 -10 -2907 0
-2377 -3 -2902 -13 -2906 -12 -4 -22 7 -23 28 0 5 -4 12 -9 15 -5 3 -51 76
-102 161 -52 85 -158 260 -235 388 -78 128 -151 250 -163 270 -13 20 -30 51
-39 69 -9 18 -22 37 -30 44 -8 6 -14 15 -14 20 0 5 -16 33 -35 63 -19 30 -35
58 -35 61 0 3 -5 11 -10 18 -18 20 -130 209 -130 218 0 5 -4 9 -10 9 -5 0 -10
4 -10 9 0 12 -196 339 -218 364 -8 9 -11 17 -6 17 5 0 5 4 -1 8 -13 9 -33 40
-48 75 -6 15 -15 27 -19 27 -4 0 -8 7 -8 15 0 8 -4 15 -9 15 -5 0 -11 8 -14
18 -7 19 -50 94 -78 134 -11 14 -19 31 -19 37 0 6 -4 11 -10 11 -5 0 -10 4
-10 9 0 5 -22 46 -50 90 -27 44 -50 85 -50 91 0 5 -3 10 -8 10 -4 0 -12 9 -17
20 -21 43 -320 535 -327 538 -5 2 -8 8 -8 13 0 5 -12 28 -27 52 -15 23 -33 51
-39 62 -6 11 -21 36 -32 55 -12 19 -26 45 -32 58 -5 12 -14 22 -20 22 -5 0 -9
3 -8 8 2 4 -8 25 -21 47 -14 22 -32 52 -40 66 -17 28 -190 314 -229 377 -12
20 -25 44 -29 52 -4 8 -9 17 -13 20 -5 5 -21 31 -70 115 -10 17 -77 127 -149
245 -72 118 -137 226 -144 240 -6 14 -14 27 -17 30 -3 3 -66 106 -140 230 -74
124 -137 227 -140 230 -3 3 -11 16 -18 30 -7 14 -23 43 -37 65 -14 22 -33 55
-42 73 -9 17 -20 32 -25 32 -4 0 -8 4 -8 9 0 5 -30 58 -67 118 -36 59 -81 133
-98 164 -18 31 -44 73 -59 95 -14 21 -26 44 -26 50 0 7 -3 14 -7 16 -5 2 -59
89 -122 193 -63 105 -116 192 -118 195 -8 9 -1845 5 -1851 -5z"/>
</g>
</svg>
