<?xml version="1.0" encoding="UTF-8" standalone="no"?>
<svg width="303px" height="51px" viewBox="0 0 303 51" version="1.1" xmlns="http://www.w3.org/2000/svg" xmlns:xlink="http://www.w3.org/1999/xlink" xmlns:sketch="http://www.bohemiancoding.com/sketch/ns">
    <!-- Generator: Sketch 3.0.4 (8054) - http://www.bohemiancoding.com/sketch -->
    <title>Artboard 1</title>
    <desc>Created with Sketch.</desc>
    <defs></defs>
    <g id="Page-1" stroke="none" stroke-width="1" fill="none" fill-rule="evenodd" sketch:type="MSPage">
        <g id="Artboard-1" sketch:type="MSArtboardGroup" fill="#000000">
            <g id="Group" sketch:type="MSLayerGroup" transform="translate(1.000000, 1.000000)">
                <path d="M4.2620438,7.66133846 L4.20364964,7.66133846 L4.20364964,23.1272462 L0,23.1272462 L0,0.455323077 L4.7,0.455323077 L13.6036496,15.6807538 L13.6620438,15.6807538 L13.6620438,0.455323077 L17.8656934,0.455323077 L17.8656934,23.1272462 L13.3408759,23.1272462 L4.2620438,7.66133846" id="Fill-1" sketch:type="MSShapeGroup"></path>
                <path d="M23.8832117,0.455323077 L37.8956204,0.455323077 L37.8956204,4.49518462 L28.2620438,4.49518462 L28.2620438,9.65073846 L37.6328467,9.65073846 L37.6328467,13.6906 L28.2620438,13.6906 L28.2620438,19.0873846 L37.8956204,19.0873846 L37.8956204,23.1272462 L23.8832117,23.1272462 L23.8832117,0.455323077" id="Fill-4" sketch:type="MSShapeGroup"></path>
                <path d="M56.0854015,0.455323077 L60.8145985,0.455323077 L53.6919708,23.1272462 L49.079562,23.1272462 L41.9270073,0.455323077 L46.7445255,0.455323077 L51.4437956,17.1281385 L51.5021898,17.1281385 L56.0854015,0.455323077" id="Fill-5" sketch:type="MSShapeGroup"></path>
                <path d="M64.7007299,0.455323077 L78.7124088,0.455323077 L78.7124088,4.49518462 L69.079562,4.49518462 L69.079562,9.65073846 L78.450365,9.65073846 L78.450365,13.6906 L69.079562,13.6906 L69.079562,19.0873846 L78.7124088,19.0873846 L78.7124088,23.1272462 L64.7007299,23.1272462 L64.7007299,0.455323077" id="Fill-6" sketch:type="MSShapeGroup"></path>
                <path d="M91.589781,10.4950462 C94.5963504,10.4950462 95.3554745,8.83658462 95.3554745,7.38995385 C95.3554745,5.76164615 94.5963504,4.31501538 91.4430657,4.31501538 L88.670073,4.31501538 L88.670073,10.4950462 L91.589781,10.4950462 L91.589781,10.4950462 Z M91.2394161,14.1730615 L88.670073,14.1730615 L88.670073,23.1272462 L84.2912409,23.1272462 L84.2912409,0.455323077 L92.4941606,0.455323077 C97.1065693,0.455323077 99.7343066,3.4398 99.7343066,7.20827692 C99.7343066,9.59043077 98.4788321,12.6955231 95.6474453,13.5699846 L100.755474,23.1272462 L95.529927,23.1272462 L91.2394161,14.1730615 L91.2394161,14.1730615 Z" id="Fill-7" sketch:type="MSShapeGroup"></path>
                <path d="M105.517518,0.455323077 L109.89635,0.455323077 L109.89635,18.9064615 L118.332847,18.9064615 L118.332847,23.1272462 L105.517518,23.1272462 L105.517518,0.455323077" id="Fill-8" sketch:type="MSShapeGroup"></path>
                <path d="M131.589051,5.91241538 L131.530657,5.91241538 L128.757664,14.7158308 L134.391971,14.7158308 L131.589051,5.91241538 L131.589051,5.91241538 Z M135.559124,18.3938462 L127.531387,18.3938462 L126.10073,23.1272462 L121.372263,23.1272462 L129.370803,0.455323077 L133.982482,0.455323077 L141.864964,23.1272462 L137.047445,23.1272462 L135.559124,18.3938462 L135.559124,18.3938462 Z" id="Fill-9" sketch:type="MSShapeGroup"></path>
                <path d="M150.013139,7.66133846 L149.954745,7.66133846 L149.954745,23.1272462 L145.751095,23.1272462 L145.751095,0.455323077 L150.451825,0.455323077 L159.354745,15.6807538 L159.413139,15.6807538 L159.413139,0.455323077 L163.616788,0.455323077 L163.616788,23.1272462 L159.092701,23.1272462 L150.013139,7.66133846" id="Fill-10" sketch:type="MSShapeGroup"></path>
                <path d="M177.720438,19.2683077 C182.216058,19.2683077 183.909489,15.2887538 183.909489,11.7615077 C183.909489,7.96287692 182.332847,4.31501538 177.370803,4.31501538 L174.013139,4.31501538 L174.013139,19.2683077 L177.720438,19.2683077 L177.720438,19.2683077 Z M169.634307,0.455323077 L177.89562,0.455323077 C184.551095,0.455323077 188.463504,4.49518462 188.463504,11.7916615 C188.463504,19.0270769 183.617518,23.1272462 178.012409,23.1272462 L169.634307,23.1272462 L169.634307,0.455323077 L169.634307,0.455323077 Z" id="Fill-11" sketch:type="MSShapeGroup"></path>
                <path d="M214.59635,6.42503077 C214.59635,4.85703077 213.136496,3.89286154 211.384672,3.89286154 C209.19562,3.89286154 207.881752,4.88718462 207.881752,6.39487692 C207.881752,7.96287692 209.340876,8.71672308 210.421898,9.07781538 L214.449635,10.4045846 C217.369343,11.3695077 219.441606,13.1176769 219.441606,16.6155231 C219.441606,19.3889231 217.515328,23.5494 211.443066,23.5494 C203.824088,23.5494 203.123358,18.4541538 203.123358,16.4346 L207.50219,16.3441385 C207.50219,18.7556923 209.340876,19.6904615 211.472263,19.6904615 C212.961314,19.6904615 215.062774,18.9366154 215.062774,17.1876923 C215.062774,15.9822923 214.567153,15.3490615 212.407299,14.5349077 L207.618978,12.7558308 C205.19635,11.8519692 203.50292,9.65073846 203.50292,7.08841538 C203.50292,4.19364615 205.429927,0.0331692308 211.122628,0.0331692308 C217.894891,0.0331692308 218.975182,4.67610769 218.975182,6.33456923 L214.59635,6.42503077" id="Fill-12" sketch:type="MSShapeGroup"></path>
                <path d="M230.859854,10.9775077 C233.750365,10.9775077 234.421168,9.16827692 234.421168,7.66133846 C234.421168,6.12349231 233.39927,4.31501538 230.889051,4.31501538 L228.407299,4.31501538 L228.407299,10.9775077 L230.859854,10.9775077 L230.859854,10.9775077 Z M224.028467,0.455323077 L231.181022,0.455323077 C234.625547,0.455323077 238.8,2.08363077 238.8,7.66133846 C238.8,12.8772 235.034307,14.8364462 231.531387,14.8364462 L228.407299,14.8364462 L228.407299,23.1272462 L224.028467,23.1272462 L224.028467,0.455323077 L224.028467,0.455323077 Z" id="Fill-13" sketch:type="MSShapeGroup"></path>
                <path d="M249.456934,5.91241538 L249.39854,5.91241538 L246.625547,14.7158308 L252.259854,14.7158308 L249.456934,5.91241538 L249.456934,5.91241538 Z M253.427737,18.3938462 L245.4,18.3938462 L243.969343,23.1272462 L239.240146,23.1272462 L247.238686,0.455323077 L251.851095,0.455323077 L259.732847,23.1272462 L254.916058,23.1272462 L253.427737,18.3938462 L253.427737,18.3938462 Z" id="Fill-14" sketch:type="MSShapeGroup"></path>
                <path d="M277.427007,8.50489231 C276.784672,5.58072308 274.857664,4.07303077 272.347445,4.07303077 C268.786131,4.07303077 266.625547,7.60103077 266.625547,11.8218154 C266.625547,16.6155231 268.90292,19.5095385 272.464234,19.5095385 C274.566423,19.5095385 276.609489,18.0621538 277.368613,15.4998308 L281.864234,15.8315231 C280.345985,20.8966154 276.784672,23.5494 272.289051,23.5494 C266.333577,23.5494 262.072263,19.3889231 262.072263,11.7916615 C262.072263,4.94749231 266.245985,0.0331692308 272.289051,0.0331692308 C276.90146,0.0331692308 280.69635,2.38516923 281.835036,8.20335385 L277.427007,8.50489231" id="Fill-15" sketch:type="MSShapeGroup"></path>
                <path d="M300.347445,0.455323077 L300.347445,4.49518462 L290.713869,4.49518462 L290.713869,9.65073846 L300.084672,9.65073846 L300.084672,13.6906 L290.713869,13.6906 L290.713869,19.0873846 L300.347445,19.0873846 L300.347445,23.1272462 L286.335036,23.1272462 L286.335036,0.455323077 L300.347445,0.455323077 Z" id="Fill-16" sketch:type="MSShapeGroup"></path>
                <path d="M73.0394161,43.8158 C75.1751825,43.8158 75.9788321,41.9251538 75.9788321,40.2493538 C75.9788321,38.4446462 75.229927,36.7123077 72.8729927,36.7123077 L71.2781022,36.7123077 L71.2781022,43.8158 L73.0394161,43.8158 L73.0394161,43.8158 Z M69.1985401,34.8789538 L73.1226277,34.8789538 C76.2839416,34.8789538 78.1423358,36.7982462 78.1423358,40.2636769 C78.1423358,43.7012154 75.840146,45.6491538 73.1781022,45.6491538 L69.1985401,45.6491538 L69.1985401,34.8789538 L69.1985401,34.8789538 Z" id="Fill-17" sketch:type="MSShapeGroup"></path>
                <path d="M95.3686131,38.2870923 L97.3656934,38.2870923 L97.3656934,45.6491538 L95.3686131,45.6491538 L95.3686131,38.2870923 Z M96.3671533,34.7930154 C96.9635036,34.7930154 97.5321168,35.3229692 97.5321168,35.9810769 C97.5321168,36.6112923 97.0051095,37.1992923 96.3671533,37.1992923 C95.7014599,37.1992923 95.2021898,36.5834 95.2021898,36.0112308 C95.2021898,35.4089077 95.7014599,34.7930154 96.3671533,34.7930154 L96.3671533,34.7930154 Z" id="Fill-22" sketch:type="MSShapeGroup"></path>
                <path d="M99.3766423,38.2870923 L100.291971,38.2870923 L100.291971,36.1687846 L102.289051,36.1687846 L102.289051,38.2870923 L103.343066,38.2870923 L103.343066,39.8626308 L102.289051,39.8626308 L102.289051,43.5858769 C102.289051,43.9160615 102.427737,44.0736154 102.940876,44.0736154 C103.107299,44.0736154 103.218248,44.0585385 103.343066,44.0306462 L103.343066,45.6491538 C103.024088,45.6913692 102.705109,45.7343385 102.386131,45.7343385 C101.082482,45.7343385 100.291971,45.4049077 100.291971,43.8158 L100.291971,39.8626308 L99.3766423,39.8626308 L99.3766423,38.2870923" id="Fill-23" sketch:type="MSShapeGroup"></path>
                <path d="M110.124818,42.4407846 L108.460584,42.5983385 C107.545255,42.6835231 107.240146,42.9707385 107.240146,43.5006923 C107.240146,44.1588 107.822628,44.3593231 108.488321,44.3593231 C109.111679,44.3593231 110.124818,44.0012462 110.124818,43.1132154 L110.124818,42.4407846 L110.124818,42.4407846 Z M110.207299,44.6887538 L110.179562,44.6887538 C109.514599,45.5918615 108.571533,45.8489231 107.739416,45.8489231 C106.616058,45.8489231 105.243066,45.2767538 105.243066,43.6009538 C105.243066,42.8131846 105.492701,41.5097846 108.280292,41.3379077 L110.124818,41.2233231 L110.124818,40.8803231 C110.124818,40.0058615 109.59708,39.5769231 108.724088,39.5769231 C107.905839,39.5769231 107.420438,40.0058615 107.378832,40.6647231 L105.464964,40.6647231 C105.535036,39.5332 106.310949,38.0865692 108.806569,38.0865692 C110.567883,38.0865692 112.037956,38.7748308 112.037956,40.4649538 L112.037956,44.7317231 C112.037956,45.1184462 112.079562,45.3762615 112.135036,45.6491538 L110.207299,45.6491538 L110.207299,44.6887538 L110.207299,44.6887538 Z" id="Fill-24" sketch:type="MSShapeGroup"></path>
                <path d="M114.535036,34.8789538 L116.531387,34.8789538 L116.531387,45.6484 L114.535036,45.6484 L114.535036,34.8789538 Z" id="Fill-25" sketch:type="MSShapeGroup"></path>
                <path d="M127.69635,37.4714308 L127.668613,37.4714308 L126.351095,41.6530154 L129.027737,41.6530154 L127.69635,37.4714308 L127.69635,37.4714308 Z M129.582482,43.4004308 L125.768613,43.4004308 L125.089781,45.6491538 L122.843066,45.6491538 L126.642336,34.8789538 L128.832847,34.8789538 L132.577372,45.6491538 L130.289781,45.6491538 L129.582482,43.4004308 L129.582482,43.4004308 Z" id="Fill-26" sketch:type="MSShapeGroup"></path>
                <path d="M134.228467,38.2870923 L136.142336,38.2870923 L136.142336,39.7050769 L136.170073,39.7050769 C136.544526,38.6594923 137.279562,38.0865692 138.222628,38.0865692 L138.5,38.0865692 L138.5,40.0925538 L138.055474,40.0925538 C137.029927,40.0925538 136.225547,40.7363385 136.225547,42.0397385 L136.225547,45.6491538 L134.228467,45.6491538 L134.228467,38.2870923" id="Fill-27" sketch:type="MSShapeGroup"></path>
                <path d="M140.024818,38.2870923 L140.940146,38.2870923 L140.940146,36.1687846 L142.937226,36.1687846 L142.937226,38.2870923 L143.991241,38.2870923 L143.991241,39.8626308 L142.937226,39.8626308 L142.937226,43.5858769 C142.937226,43.9160615 143.075912,44.0736154 143.589051,44.0736154 C143.755474,44.0736154 143.866423,44.0585385 143.991241,44.0306462 L143.991241,45.6491538 C143.672263,45.6913692 143.353285,45.7343385 143.034307,45.7343385 C141.730657,45.7343385 140.940146,45.4049077 140.940146,43.8158 L140.940146,39.8626308 L140.024818,39.8626308 L140.024818,38.2870923" id="Fill-28" sketch:type="MSShapeGroup"></path>
                <path d="M151.064964,34.8789538 L157.721168,34.8789538 L157.721168,36.7982462 L153.145255,36.7982462 L153.145255,39.2474923 L157.59635,39.2474923 L157.59635,41.1652769 L153.145255,41.1652769 L153.145255,43.7298615 L157.721168,43.7298615 L157.721168,45.6491538 L151.064964,45.6491538 L151.064964,34.8789538" id="Fill-29" sketch:type="MSShapeGroup"></path>
                <path d="M163.005109,43.5436615 L161.79854,45.6491538 L159.358394,45.6491538 L161.854015,41.9681231 L159.413139,38.2870923 L161.922628,38.2870923 L163.060584,40.3209692 L164.266423,38.2870923 L166.721168,38.2870923 L164.225547,41.8965077 L166.789781,45.6491538 L164.266423,45.6491538 L163.005109,43.5436615" id="Fill-30" sketch:type="MSShapeGroup"></path>
                <path d="M173.267883,41.1652769 C173.267883,40.1061231 172.644526,39.7488 172.019708,39.7488 C171.216058,39.7488 170.716788,40.4649538 170.716788,41.4668154 L170.716788,45.6491538 L168.719708,45.6491538 L168.719708,34.8789538 L170.716788,34.8789538 L170.716788,39.2474923 L170.743796,39.2474923 C171.29927,38.3594615 171.991971,38.0865692 172.769343,38.0865692 C174.488321,38.0865692 175.264964,39.2324154 175.264964,40.6504 L175.264964,45.6491538 L173.267883,45.6491538 L173.267883,41.1652769" id="Fill-31" sketch:type="MSShapeGroup"></path>
                <path d="M177.706569,38.2870923 L179.70365,38.2870923 L179.70365,45.6491538 L177.706569,45.6491538 L177.706569,38.2870923 Z M178.705109,34.7930154 C179.30073,34.7930154 179.869343,35.3229692 179.869343,35.9810769 C179.869343,36.6112923 179.343066,37.1992923 178.705109,37.1992923 C178.039416,37.1992923 177.540146,36.5834 177.540146,36.0112308 C177.540146,35.4089077 178.039416,34.7930154 178.705109,34.7930154 L178.705109,34.7930154 Z" id="Fill-32" sketch:type="MSShapeGroup"></path>
                <path d="M186.30438,39.8347385 C185.056204,39.8347385 184.473723,40.8803231 184.473723,41.9824462 C184.473723,43.2134769 185.111679,44.1882 186.248905,44.1882 C187.427737,44.1882 188.051095,43.1705077 188.051095,42.0110923 C188.051095,40.8938923 187.455474,39.8347385 186.30438,39.8347385 L186.30438,39.8347385 Z M182.545985,34.8789538 L184.543796,34.8789538 L184.543796,39.2897077 L184.571533,39.2897077 C185.236496,38.3881077 185.916058,38.0865692 186.830657,38.0865692 C188.883212,38.0865692 190.131387,39.9063538 190.131387,41.9530462 C190.131387,44.0012462 188.786131,45.8489231 186.80292,45.8489231 C185.888321,45.8489231 185.056204,45.4916 184.488321,44.6178923 L184.459854,44.6178923 L184.459854,45.6491538 L182.545985,45.6491538 L182.545985,34.8789538 L182.545985,34.8789538 Z" id="Fill-33" sketch:type="MSShapeGroup"></path>
                <path d="M191.921898,38.2870923 L193.918978,38.2870923 L193.918978,45.6491538 L191.921898,45.6491538 L191.921898,38.2870923 Z M192.920438,34.7930154 C193.516788,34.7930154 194.085401,35.3229692 194.085401,35.9810769 C194.085401,36.6112923 193.558394,37.1992923 192.920438,37.1992923 C192.254745,37.1992923 191.756204,36.5834 191.756204,36.0112308 C191.756204,35.4089077 192.254745,34.7930154 192.920438,34.7930154 L192.920438,34.7930154 Z" id="Fill-34" sketch:type="MSShapeGroup"></path>
                <path d="M195.929927,38.2870923 L196.845255,38.2870923 L196.845255,36.1687846 L198.842336,36.1687846 L198.842336,38.2870923 L199.89635,38.2870923 L199.89635,39.8626308 L198.842336,39.8626308 L198.842336,43.5858769 C198.842336,43.9160615 198.981022,44.0736154 199.494161,44.0736154 C199.660584,44.0736154 199.771533,44.0585385 199.89635,44.0306462 L199.89635,45.6491538 C199.576642,45.6913692 199.258394,45.7343385 198.938686,45.7343385 C197.635766,45.7343385 196.845255,45.4049077 196.845255,43.8158 L196.845255,39.8626308 L195.929927,39.8626308 L195.929927,38.2870923" id="Fill-35" sketch:type="MSShapeGroup"></path>
                <path d="M202.059854,38.2870923 L204.056934,38.2870923 L204.056934,45.6491538 L202.059854,45.6491538 L202.059854,38.2870923 Z M203.058394,34.7930154 C203.654015,34.7930154 204.223358,35.3229692 204.223358,35.9810769 C204.223358,36.6112923 203.69635,37.1992923 203.058394,37.1992923 C202.392701,37.1992923 201.893431,36.5834 201.893431,36.0112308 C201.893431,35.4089077 202.392701,34.7930154 203.058394,34.7930154 L203.058394,34.7930154 Z" id="Fill-36" sketch:type="MSShapeGroup"></path>
                <path d="M209.770073,39.7488 C208.716788,39.7488 208.20365,40.6926154 208.20365,41.9681231 C208.20365,43.2428769 208.716788,44.1882 209.770073,44.1882 C210.824818,44.1882 211.337226,43.2428769 211.337226,41.9681231 C211.337226,40.6926154 210.824818,39.7488 209.770073,39.7488 L209.770073,39.7488 Z M209.770073,45.8489231 C207.621168,45.8489231 206.123358,44.3314308 206.123358,41.9681231 C206.123358,39.6048154 207.621168,38.0865692 209.770073,38.0865692 C211.919708,38.0865692 213.416788,39.6048154 213.416788,41.9681231 C213.416788,44.3314308 211.919708,45.8489231 209.770073,45.8489231 L209.770073,45.8489231 Z" id="Fill-37" sketch:type="MSShapeGroup"></path>
                <path d="M220.061314,41.1652769 C220.061314,40.1061231 219.436496,39.7488 218.813139,39.7488 C218.008759,39.7488 217.510219,40.4649538 217.510219,41.4668154 L217.510219,45.6491538 L215.512409,45.6491538 L215.512409,38.2870923 L217.427007,38.2870923 L217.427007,39.2474923 L217.454745,39.2474923 C218.050365,38.3594615 218.757664,38.0865692 219.562044,38.0865692 C221.281752,38.0865692 222.057664,39.2324154 222.057664,40.6504 L222.057664,45.6491538 L220.061314,45.6491538 L220.061314,41.1652769" id="Fill-38" sketch:type="MSShapeGroup"></path>
                <path d="M228.465693,40.5652154 C228.437226,39.9485692 228.008029,39.5769231 227.245255,39.5769231 C226.718248,39.5769231 226.191241,39.7910154 226.191241,40.2350308 C226.191241,41.5527538 230.628467,40.4069077 230.628467,43.3861077 C230.628467,43.9590308 230.323358,45.8489231 227.383942,45.8489231 C226.385401,45.8489231 224.389051,45.5338154 224.221898,43.3574615 L226.218978,43.3574615 C226.246715,44.0736154 226.856204,44.3593231 227.453285,44.3593231 C227.966423,44.3593231 228.631387,44.2017692 228.631387,43.6009538 C228.631387,42.3684154 224.361314,43.4863692 224.361314,40.4498769 C224.361314,39.3183538 225.206569,38.0865692 227.313869,38.0865692 C229.144526,38.0865692 230.351825,38.9173077 230.462044,40.5222462 L228.465693,40.5652154" id="Fill-39" sketch:type="MSShapeGroup"></path>
                <path d="M80.5985401,38.2870923 L82.5956204,38.2870923 L82.5956204,45.6491538 L80.5985401,45.6491538 L80.5985401,38.2870923 L80.5985401,38.2870923 Z M81.5970803,34.7930154 C82.1934307,34.7930154 82.7620438,35.3229692 82.7620438,35.9810769 C82.7620438,36.6112923 82.2350365,37.1992923 81.5970803,37.1992923 C80.9313869,37.1992923 80.4321168,36.5834 80.4321168,36.0112308 C80.4321168,35.4089077 80.9313869,34.7930154 81.5970803,34.7930154 L81.5970803,34.7930154 L81.5970803,34.7930154 Z" id="Fill-18" sketch:type="MSShapeGroup"></path>
                <path d="M88.7525547,39.8347385 C87.6846715,39.8347385 87.019708,40.7506615 87.019708,41.8829385 C87.019708,43.6582462 88.1985401,44.0585385 88.8226277,44.0585385 C89.3489051,44.0585385 90.5832117,43.8014769 90.5832117,41.9530462 C90.5832117,40.6074308 89.9313869,39.8347385 88.7525547,39.8347385 L88.7525547,39.8347385 L88.7525547,39.8347385 Z M90.6109489,38.2870923 L92.5248175,38.2870923 L92.5248175,45.5338154 C92.5248175,47.7538923 90.9715328,49 88.6978102,49 C86.6452555,49 85.4941606,48.0403538 85.2306569,46.4934615 L87.2832117,46.4934615 C87.449635,47.0520615 87.7963504,47.4244615 88.7525547,47.4244615 C89.4467153,47.4244615 90.4861314,47.1236769 90.5416058,45.6491538 L90.5970803,44.3887231 L90.5693431,44.3593231 C90.1116788,45.3762615 89.279562,45.7200154 88.2678832,45.7200154 C86.4788321,45.7200154 84.9394161,44.2733846 84.9394161,41.8829385 C84.9394161,39.8196615 86.3262774,38.0865692 88.3510949,38.0865692 C89.4321168,38.0865692 90.2364964,38.6594923 90.5832117,39.4472615 L90.6109489,39.4472615 L90.6109489,38.2870923 L90.6109489,38.2870923 Z" id="Fill-20" sketch:type="MSShapeGroup"></path>
            </g>
        </g>
    </g>
</svg>